<?xml version="1.0" standalone="no"?>
<!DOCTYPE svg PUBLIC "-//W3C//DTD SVG 20010904//EN"
 "http://www.w3.org/TR/2001/REC-SVG-20010904/DTD/svg10.dtd">
<svg version="1.0" xmlns="http://www.w3.org/2000/svg"
 width="310.000000pt" height="310.000000pt" viewBox="0 0 310.000000 310.000000"
 preserveAspectRatio="xMidYMid meet">

<g transform="translate(0.000000,310.000000) scale(0.100000,-0.100000)"
fill="#FFFFFF" stroke="#000000">
<path d="M200 2890 c0 -6 34 -70 76 -142 42 -72 84 -146 94 -162 69 -124 374
-653 380 -661 22 -30 58 -104 53 -109 -4 -3 -117 -6 -252 -6 -141 0 -241 -4
-235 -9 5 -5 35 -18 66 -30 50 -18 211 -80 333 -128 43 -17 58 -22 120 -46 79
-30 130 -51 141 -59 6 -5 45 -68 87 -141 41 -72 97 -170 124 -217 135 -233
249 -430 271 -470 14 -25 36 -62 49 -82 12 -21 23 -42 23 -48 0 -5 9 -10 20
-10 11 0 20 5 20 10 0 6 11 27 23 48 13 20 35 57 49 82 22 40 136 237 271 470
27 47 83 145 124 217 42 73 81 136 87 141 11 8 50 24 139 58 23 9 51 20 62 25
11 5 49 20 85 33 158 58 366 139 374 147 6 5 -97 9 -236 9 -136 0 -249 4 -252
8 -3 5 11 35 31 68 29 48 341 590 403 700 10 16 52 90 94 162 42 72 76 136 76
142 0 19 -25 9 -45 -18 -11 -15 -159 -194 -330 -397 -170 -204 -328 -393 -350
-419 -22 -27 -44 -54 -50 -60 -5 -6 -43 -50 -83 -99 l-73 -87 -422 2 -421 3
-393 470 c-217 259 -419 502 -451 542 -52 66 -82 89 -82 63z m1091 -1460 c37
-20 15 -100 -27 -100 -34 0 -54 20 -54 55 0 47 37 68 81 45z m580 0 c23 -13
26 -62 3 -84 -34 -34 -84 -8 -84 44 0 42 39 62 81 40z"/>
</g>
</svg>
